<svg xmlns="http://www.w3.org/2000/svg" width="724" height="400" viewBox="0 0 724 400" role="img" aria-label="qloop">
  <defs>
    <linearGradient id="qBg" x1="0" y1="0" x2="724" y2="400" gradientUnits="userSpaceOnUse">
      <stop offset="0%" stop-color="#050506"/>
      <stop offset="55%" stop-color="#0E0E11"/>
      <stop offset="100%" stop-color="#050506"/>
    </linearGradient>
    <radialGradient id="qGlow" cx="78%" cy="88%" r="55%">
      <stop offset="0%" stop-color="#8A38F5" stop-opacity="0.22"/>
      <stop offset="100%" stop-color="#8A38F5" stop-opacity="0"/>
    </radialGradient>
    <linearGradient id="qBrand" x1="0%" y1="0%" x2="100%" y2="100%">
      <stop offset="0%" stop-color="#8A38F5"/>
      <stop offset="55%" stop-color="#C45FD4"/>
      <stop offset="100%" stop-color="#F4FF91"/>
    </linearGradient>
    <filter id="qSoft" x="-20%" y="-20%" width="140%" height="140%">
      <feGaussianBlur stdDeviation="18" result="b"/>
      <feMerge><feMergeNode in="b"/><feMergeNode in="SourceGraphic"/></feMerge>
    </filter>
  </defs>
  <rect width="724" height="400" fill="url(#qBg)"/>
  <rect width="724" height="400" fill="url(#qGlow)"/>
  <rect x="1" y="1" width="722" height="398" rx="28" fill="none" stroke="#FFFFFF" stroke-opacity="0.04"/>

  <text x="40" y="52" fill="#909099" font-family="ui-sans-serif, system-ui, -apple-system, sans-serif" font-size="11" font-weight="600" letter-spacing="0.14em">OPEN SOURCE</text>

  <text x="40" y="108" fill="#F2F2F4" font-family="ui-sans-serif, system-ui, -apple-system, sans-serif" font-size="52" font-weight="560" letter-spacing="-0.05em">qloop</text>
  <text x="40" y="142" fill="#A6A6B0" font-family="ui-sans-serif, system-ui, -apple-system, sans-serif" font-size="17" font-weight="400" letter-spacing="-0.01em">YAML loops for agents</text>

  <g transform="translate(40 168)">
    <rect x="0" y="0" width="644" height="132" rx="20" fill="#16161A" stroke="#FFFFFF" stroke-opacity="0.03"/>
    <circle cx="88" cy="66" r="22" fill="#8A38F5" fill-opacity="0.14" stroke="#8A38F5" stroke-opacity="0.55"/>
    <circle cx="88" cy="66" r="6" fill="#8A38F5"/>
    <text x="88" y="104" text-anchor="middle" fill="#909099" font-family="ui-monospace, SFMono-Regular, Menlo, monospace" font-size="11">fetch</text>

    <path d="M118 66 H178" stroke="#FFFFFF" stroke-opacity="0.12" stroke-width="2" stroke-linecap="round"/>
    <polygon points="178,62 186,66 178,70" fill="#FFFFFF" fill-opacity="0.18"/>

    <circle cx="248" cy="66" r="22" fill="#8A38F5" fill-opacity="0.14" stroke="#8A38F5" stroke-opacity="0.55"/>
    <circle cx="248" cy="66" r="6" fill="#8A38F5"/>
    <text x="248" y="104" text-anchor="middle" fill="#909099" font-family="ui-monospace, Menlo, monospace" font-size="11">llm-call</text>

    <path d="M278 66 H338" stroke="#FFFFFF" stroke-opacity="0.12" stroke-width="2" stroke-linecap="round"/>
    <polygon points="338,62 346,66 338,70" fill="#FFFFFF" fill-opacity="0.18"/>

    <rect x="368" y="44" width="44" height="44" rx="12" fill="#F4FF91"/>
    <path d="M380 66 H400 M390 58 V74" stroke="#000" stroke-width="2.2" stroke-linecap="round"/>
    <text x="390" y="104" text-anchor="middle" fill="#909099" font-family="ui-monospace, Menlo, monospace" font-size="11">gate</text>

    <path d="M428 66 H488" stroke="#FFFFFF" stroke-opacity="0.12" stroke-width="2" stroke-linecap="round"/>
    <polygon points="488,62 496,66 488,70" fill="#FFFFFF" fill-opacity="0.18"/>

    <circle cx="558" cy="66" r="22" fill="#FFFFFF" fill-opacity="0.04" stroke="#FFFFFF" stroke-opacity="0.14"/>
    <circle cx="558" cy="66" r="6" fill="#F2F2F4" fill-opacity="0.55"/>
    <text x="558" y="104" text-anchor="middle" fill="#909099" font-family="ui-monospace, Menlo, monospace" font-size="11">out</text>
  </g>

  <rect x="40" y="324" width="420" height="44" rx="14" fill="#0E0E11" stroke="#FFFFFF" stroke-opacity="0.04"/>
  <rect x="52" y="336" width="72" height="20" rx="6" fill="#8A38F5" fill-opacity="0.18"/>
  <text x="88" y="350" text-anchor="middle" fill="#F2F2F4" font-family="ui-monospace, Menlo, monospace" font-size="11">npm</text>
  <text x="140" y="352" fill="#F2F2F4" font-family="ui-monospace, SFMono-Regular, Menlo, monospace" font-size="13">npm i -g qloops</text>
  <text x="140" y="368" fill="#909099" font-family="ui-monospace, Menlo, monospace" font-size="11">qloop catalog · qloop run</text>

  <circle cx="660" cy="346" r="28" fill="url(#qBrand)" filter="url(#qSoft)" opacity="0.85"/>
</svg>
